<?xml version="1.0" encoding="utf-8"?>
<!-- Generator: Adobe Illustrator 24.0.1, SVG Export Plug-In . SVG Version: 6.00 Build 0)  -->
<svg version="1.1" id="Layer_1" xmlns="http://www.w3.org/2000/svg" xmlns:xlink="http://www.w3.org/1999/xlink" x="0px" y="0px"
	 viewBox="0 0 245.2 77.7" style="enable-background:new 0 0 245.2 77.7;" xml:space="preserve">
<style type="text/css">
	.st0{fill:#F8F7F7;}
</style>
<g>
	<path class="st0" d="M2.3,2.1h7.1v44.6h22.8V53H2.3V2.1z"/>
	<path class="st0" d="M69.9,38.4H50.7l-5,14.6h-7.3L56.6,2.1h7.5L82.4,53H75L69.9,38.4z M60.3,9.1c0,0-1.2,4.6-2,7.2l-5.7,16.1H68
		l-5.6-16.1c-0.9-2.6-1.9-7.2-1.9-7.2H60.3z"/>
	<path class="st0" d="M93.5,2.1h17.8c8.6,0,14.8,4.8,14.8,13c0,5-2.4,8.9-6.3,10.9v0.1c5.3,1.6,8.4,6.6,8.4,12.3
		c0,9.6-7.4,14.5-16.3,14.5H93.5V2.1z M111.3,23.5c4.6,0,7.5-3.2,7.5-7.7s-2.7-7.5-7.6-7.5h-10.5v15.2H111.3z M112.1,46.8
		c5.5,0,8.7-3.5,8.7-8.6c0-5.2-3.5-8.7-8.8-8.7h-11.4v17.4H112.1z"/>
	<path class="st0" d="M161.9,49.1c0-18.1,24.9-20.7,24.9-32.7c0-5-3.8-8.4-9.1-8.4c-6.7,0-10.3,6.5-10.3,6.5l-5.3-3.5
		c0,0,4.6-9.6,16.1-9.6c9.4,0,16.1,5.8,16.1,14.6c0,16.7-24.3,19.3-24.4,30.9H195V53h-32.8C162.1,51.6,161.9,50.3,161.9,49.1z"/>
	<path class="st0" d="M207.3,27.5c0-14.6,4.4-26.2,17.9-26.2c13.6,0,18,11.6,18,26.2c0,14.7-4.4,26.4-18,26.4
		C211.7,53.8,207.3,42.2,207.3,27.5z M235.9,27.5c0-11-2.4-19.7-10.7-19.7c-8.3,0-10.7,8.6-10.7,19.7c0,11.1,2.4,19.8,10.7,19.8
		C233.5,47.3,235.9,38.6,235.9,27.5z"/>
</g>
<g>
	<path class="st0" d="M2.3,58.9h5.6c5.2,0,8.6,3.1,8.6,8.4c0,5.4-3.4,8.5-8.6,8.5H2.3V58.9z M7.8,73.8c3.8,0,6.3-2.3,6.3-6.4
		c0-4.2-2.5-6.4-6.3-6.4H4.7v12.8H7.8z"/>
	<path class="st0" d="M50.7,58.9h9.8v2.1H53v5.3h6.1v2.1H53v5.4h7.9v2.1H50.7V58.9z"/>
	<path class="st0" d="M95.1,72.1c0,0,1.8,1.8,4.3,1.8c1.6,0,2.9-0.9,2.9-2.5c0-3.7-8.2-2.9-8.2-8.1c0-2.6,2.3-4.7,5.5-4.7
		c3.1,0,4.8,1.7,4.8,1.7l-1.1,2c0,0-1.6-1.5-3.7-1.5c-1.8,0-3.1,1.1-3.1,2.5c0,3.5,8.2,2.6,8.2,8.1c0,2.6-2,4.8-5.4,4.8
		c-3.6,0-5.6-2.2-5.6-2.2L95.1,72.1z"/>
	<path class="st0" d="M138.7,58.9h2.4v16.9h-2.4V58.9z"/>
	<path class="st0" d="M183.8,58.6c4.1,0,6.2,2,6.2,2l-1.2,1.8c0,0-1.9-1.7-4.8-1.7c-4,0-6.4,2.9-6.4,6.5c0,3.9,2.7,6.6,6.2,6.6
		c2.9,0,4.8-2.1,4.8-2.1v-2.4h-2.8v-2.1h4.9v8.5h-2.1v-1.1c0-0.4,0-0.7,0-0.7h0c0,0-1.8,2.1-5.2,2.1c-4.6,0-8.3-3.6-8.3-8.8
		C175.2,62.4,178.9,58.6,183.8,58.6z"/>
	<path class="st0" d="M225.1,58.9h2.4l7.5,11c0.6,0.9,1.4,2.4,1.4,2.4h0c0,0-0.2-1.5-0.2-2.4v-11h2.4v16.9h-2.3l-7.6-11
		c-0.6-0.9-1.4-2.5-1.4-2.5h0c0,0,0.2,1.5,0.2,2.5v11h-2.4V58.9z"/>
</g>
</svg>
